<svg xmlns="http://www.w3.org/2000/svg" viewBox="0 0 905.17 152.91">
  <defs>
    <style>
      .cls-1, .cls-2 {
        fill: none;
      }

      .cls-1 {
        stroke: #fafafa;
        stroke-miterlimit: 10;
        stroke-width: 12px;
      }

      .cls-3 {
        fill: #fff;
      }

      .cls-4 {
        fill: #fafafa;
      }

      .cls-5 {
        fill: #fafbfb;
      }
    </style>
  </defs>
  <title>covid19-confirmed_logo_1</title>
  <g id="Layer_2" data-name="Layer 2">
    <g id="Layer_1-2" data-name="Layer 1">
      <g>
        <g>
          <circle class="cls-1" cx="216.08" cy="76.71" r="68.11"/>
          <path class="cls-2" d="M282,105.3a57.48,57.48,0,1,1-57.54-57.41A57.5,57.5,0,0,1,282,105.3Zm-112.2,0c.38,30.37,24.18,54.57,54.59,54.62a54.61,54.61,0,1,0,0-109.22C194.08,50.76,170.16,75,169.78,105.32Z" transform="translate(-8.42 -28.44)"/>
          <path class="cls-3" d="M169.78,105.32c.38-30.36,24.3-54.56,54.62-54.6a54.61,54.61,0,1,1,0,109.22C194,159.89,170.16,135.69,169.78,105.32Zm62.9,31.43,10.24-4.89c2.06,2.84,4.27,5.73,6.28,8.75a3.84,3.84,0,0,0,4.41,1.72,5.18,5.18,0,0,0,3.86-3.74c.52-1.66-.13-2.92-1.41-4-2.78-2.43-5.49-5-8-7.28,2-3.25,4-6.41,6-9.63,3.31,1.29,6.7,2.59,10.06,3.94a3.78,3.78,0,0,0,4.5-.8,5.46,5.46,0,0,0,1.19-5.57c-.44-1.68-1.86-2.24-3.49-2.48-3.57-.53-7.14-1.17-10.64-1.75V99.65c3.44-.68,7-1.41,10.65-2.09,2.15-.41,3.24-1.57,3.33-3.65.18-4.53-2.78-6.53-6.94-4.72-3.09,1.35-6.2,2.67-9.07,3.91l-5.93-8.83c2.44-2.68,4.85-5.41,7.36-8,1.14-1.19,1.9-2.38,1.33-4.07A5.46,5.46,0,0,0,252,68.33c-1.77-.35-3,.53-3.93,2-2,3.05-4,6-6,8.89l-10.44-4.53,2.59-10.8a3.41,3.41,0,0,0-1.16-3.8,5.34,5.34,0,0,0-5.62-.88c-1.92.8-2.49,2.34-2.36,4.28,0,.41,0,.82,0,1.23v9.1l-11.45,1.78c-1.2-3.41-2.34-6.92-3.69-10.34a5,5,0,0,0-2.1-2.37c-1.74-.94-4.45,0-5.86,1.62s-1.36,2.92,0,5.13c1.87,3,3.73,6.06,5.49,8.93L199,86.17c-2.78-2.17-5.71-4.52-8.73-6.74a4.65,4.65,0,0,0-2.55-.87c-1.94-.06-3.93,1.82-4.42,3.92-.53,2.26.22,3.76,2.44,4.84L195.37,92l-3,10.94c-3.44-.31-7-.55-10.56-1a3.78,3.78,0,0,0-4.09,1.73,5.17,5.17,0,0,0,.06,5.82,3.57,3.57,0,0,0,4,1.62c3.64-.51,7.3-.89,10.75-1.31l3.39,10.84c-3.21,1.68-6.51,3.44-9.84,5.14a3.48,3.48,0,0,0-2.09,3.71,5.32,5.32,0,0,0,3.16,4.53c1.81.89,3.24.14,4.63-1.06,2.69-2.32,5.45-4.56,7.92-6.61l8.73,7.28c-1.73,3.06-3.65,6.35-5.46,9.7a4.78,4.78,0,0,0-.57,2.65c.27,1.94,2.75,3.69,5,3.76s3.35-.94,4.1-3.31c1.09-3.45,2.2-6.89,3.2-10l11.22,1.42c.24,3.63.48,7.43.75,11.22.19,2.67,2.26,4,5.3,3.55,2.46-.38,4.46-2.85,3.69-5.16C234.4,143.9,233.61,140.23,232.68,136.75Z" transform="translate(-8.42 -28.44)"/>
          <path class="cls-2" d="M232.68,136.75c.93,3.48,1.72,7.15,2.91,10.68.77,2.31-1.23,4.78-3.69,5.16-3,.47-5.11-.88-5.3-3.55-.27-3.79-.51-7.59-.75-11.22l-11.22-1.42c-1,3.15-2.11,6.59-3.2,10-.75,2.37-2,3.39-4.1,3.31s-4.73-1.82-5-3.76a4.78,4.78,0,0,1,.57-2.65c1.81-3.35,3.73-6.64,5.46-9.7l-8.73-7.28c-2.47,2-5.23,4.29-7.92,6.61-1.39,1.2-2.82,1.95-4.63,1.06a5.32,5.32,0,0,1-3.16-4.53,3.48,3.48,0,0,1,2.09-3.71c3.33-1.7,6.63-3.46,9.84-5.14l-3.39-10.84c-3.45.42-7.11.8-10.75,1.31a3.57,3.57,0,0,1-4-1.62,5.17,5.17,0,0,1-.06-5.82,3.78,3.78,0,0,1,4.09-1.73c3.55.44,7.12.68,10.56,1l3-10.94-9.66-4.68c-2.22-1.08-3-2.58-2.44-4.84.49-2.1,2.48-4,4.42-3.92a4.65,4.65,0,0,1,2.55.87c3,2.22,5.95,4.57,8.73,6.74l8.49-7.58c-1.76-2.87-3.62-5.9-5.49-8.93-1.36-2.21-1.36-3.51,0-5.13s4.12-2.56,5.86-1.62a5,5,0,0,1,2.1,2.37c1.35,3.42,2.49,6.93,3.69,10.34l11.45-1.78v-9.1c0-.41,0-.82,0-1.23-.13-1.94.44-3.48,2.36-4.28a5.34,5.34,0,0,1,5.62.88,3.41,3.41,0,0,1,1.16,3.8l-2.59,10.8,10.44,4.53c1.93-2.86,4-5.84,6-8.89,1-1.49,2.16-2.37,3.93-2a5.46,5.46,0,0,1,4.42,3.82c.57,1.69-.19,2.88-1.33,4.07-2.51,2.64-4.92,5.37-7.36,8l5.93,8.83c2.87-1.24,6-2.56,9.07-3.91,4.16-1.81,7.12.19,6.94,4.72-.09,2.08-1.18,3.24-3.33,3.65-3.61.68-7.21,1.41-10.65,2.09V111c3.5.58,7.07,1.22,10.64,1.75,1.63.24,3.05.8,3.49,2.48a5.46,5.46,0,0,1-1.19,5.57,3.78,3.78,0,0,1-4.5.8c-3.36-1.35-6.75-2.65-10.06-3.94-2,3.22-4,6.38-6,9.63,2.55,2.32,5.26,4.85,8,7.28,1.28,1.12,1.93,2.38,1.41,4a5.18,5.18,0,0,1-3.86,3.74,3.84,3.84,0,0,1-4.41-1.72c-2-3-4.22-5.91-6.28-8.75Zm-8.39-5.49a25.43,25.43,0,0,0,0-50.85c-15.11.09-25.43,11.77-25.48,25.55A25.37,25.37,0,0,0,224.29,131.26Z" transform="translate(-8.42 -28.44)"/>
          <path class="cls-4" d="M246.25,99.41A10.34,10.34,0,1,1,236,89,10.44,10.44,0,0,1,246.25,99.41Zm-17.32-.13a6.89,6.89,0,0,0,6.86,7.14,7.09,7.09,0,0,0,7.26-7A7.24,7.24,0,0,0,236,92.28,7,7,0,0,0,228.93,99.28Z" transform="translate(-8.42 -28.44)"/>
          <path class="cls-4" d="M210.06,107.66a7.12,7.12,0,1,1,7.18-7.15A7.26,7.26,0,0,1,210.06,107.66Zm0-11a3.87,3.87,0,0,0-3.94,3.88,4,4,0,0,0,3.93,3.93,3.81,3.81,0,0,0,3.85-3.92A3.69,3.69,0,0,0,210.07,96.66Z" transform="translate(-8.42 -28.44)"/>
          <path class="cls-4" d="M228.18,120.42a6.3,6.3,0,0,1-6.37,6.33,6.36,6.36,0,1,1,0-12.71A6.34,6.34,0,0,1,228.18,120.42Zm-3.2,0a3.27,3.27,0,0,0-3-3.24,3.18,3.18,0,0,0-.1,6.35A3.21,3.21,0,0,0,225,120.45Z" transform="translate(-8.42 -28.44)"/>
        </g>
        <path class="cls-5" d="M39,170.35A60.35,60.35,0,0,1,16.4,144.42q-8-16.74-8-39.71,0-22.77,8-39.52a61,61,0,0,1,22.71-26Q53.86,30,73.62,30a66.31,66.31,0,0,1,28.48,6,55.83,55.83,0,0,1,21,16.8A55.21,55.21,0,0,1,133.69,78H115.44a39.51,39.51,0,0,0-8.28-16.55A41.18,41.18,0,0,0,92.57,50.55a45.32,45.32,0,0,0-18.95-3.91q-14.15,0-24.63,7.17T32.75,74Q27,87.06,27,104.71T32.7,135.5q5.71,13,16.24,20.21t24.78,7.17a52.09,52.09,0,0,0,19.1-3.31A37.85,37.85,0,0,0,107.06,150a37.22,37.22,0,0,0,8.38-15h18.25a59.12,59.12,0,0,1-11.38,24.22A51.25,51.25,0,0,1,102,174.36q-12.28,5.17-28.33,5.17Q53.66,179.53,39,170.35Z" transform="translate(-8.42 -28.44)"/>
        <g>
          <path class="cls-5" d="M355.44,178.89,300.92,31h19.37l44,125.45h.61L408.84,31h19.37L373.69,178.89Z" transform="translate(-8.42 -28.44)"/>
          <path class="cls-5" d="M445.12,178.89V31h18.45V178.89Z" transform="translate(-8.42 -28.44)"/>
          <path class="cls-5" d="M542,31q21.93,0,37.56,8.77a58.14,58.14,0,0,1,23.93,25.31q8.31,16.55,8.31,39.82t-8.31,39.86a58.13,58.13,0,0,1-23.88,25.37Q564,178.89,542,178.89h-49.7V31ZM510.71,162.29h30q16.82,0,28.44-6.66a42.89,42.89,0,0,0,17.68-19.42q6-12.77,6-31.11,0-18.54-6-31.36a42.81,42.81,0,0,0-17.68-19.47q-11.62-6.66-28.44-6.66h-30Z" transform="translate(-8.42 -28.44)"/>
          <path class="cls-5" d="M631.75,127.24v-16.6H699v16.6Z" transform="translate(-8.42 -28.44)"/>
          <path class="cls-5" d="M753.92,50.58h-.41q-3.9,2.76-7.84,5.48t-7.84,5.43L730,66.92q-3.9,2.73-7.84,5.44t-7.84,5.48V59.29q3.89-2.86,7.84-5.69L730.09,48,738,42.33l7.89-5.64q3.95-2.82,7.84-5.69h18V178.89H753.92Z" transform="translate(-8.42 -28.44)"/>
          <path class="cls-5" d="M833.14,176.79A46.55,46.55,0,0,1,815.77,164a41.9,41.9,0,0,1-9.07-19.42h18.75A26.61,26.61,0,0,0,836.78,160q8.25,5.24,19.73,5.23a33.1,33.1,0,0,0,16.65-4.1,34.66,34.66,0,0,0,12.2-12,62,62,0,0,0,7.58-19.32,126.31,126.31,0,0,0,2.82-26.18h-.31a35.46,35.46,0,0,1-9.22,12.76,43.63,43.63,0,0,1-14.4,8.45,51.83,51.83,0,0,1-17.68,3A49.75,49.75,0,0,1,829,121.5a46.61,46.61,0,0,1-17.53-17.42A49.21,49.21,0,0,1,805.06,79a49.93,49.93,0,0,1,6.76-26A48.6,48.6,0,0,1,830.42,35a54.83,54.83,0,0,1,27-6.56,55.75,55.75,0,0,1,19.83,3.74A49.9,49.9,0,0,1,895.4,44.43q8.25,8.51,13.22,22.75t5,35.26q0,24.9-6.76,42.58t-19.58,27q-12.81,9.32-31,9.32A57.32,57.32,0,0,1,833.14,176.79Zm41.71-69.38a31.77,31.77,0,0,0,16.6-28.55A33.36,33.36,0,0,0,857.63,45a33.89,33.89,0,0,0-29.41,16.45,32.17,32.17,0,0,0-4.51,16.86,33.62,33.62,0,0,0,4.36,17.17,31.42,31.42,0,0,0,12,11.84,34.52,34.52,0,0,0,17.27,4.3A35.61,35.61,0,0,0,874.85,107.41Z" transform="translate(-8.42 -28.44)"/>
        </g>
      </g>
    </g>
  </g>
</svg>
